<svg xmlns="http://www.w3.org/2000/svg" xmlns:xlink="http://www.w3.org/1999/xlink" viewBox="0 0 91 101" fill="#fff" fill-rule="evenodd" stroke="#000" stroke-linecap="round" stroke-linejoin="round"><use xlink:href="#A" href="#A" x=".5" y=".5"/><symbol id="A" overflow="visible"><path d="M36.006 59.556C16.115 68.192 10.147 72.794 7.789 74.864 4.156 78.048 2.145 89.919 0 100h90c-2.141-10.095-4.17-21.952-7.789-25.137-2.358-2.069-8.104-6.553-27.995-15.188z" fill="#263238" stroke="none"/><g stroke="none"><path d="M35.344 52.92c-3.035-2.225-5.701-4.769-6.709-6.387-.473-.752-1.505-3.71-2.368-7.754-1.104-.697-2.138-2.101-2.731-3.885-.971-2.922-.379-5.722 1.328-6.278l.067-.021c-.534-11.969 2.901-25.457 20.087-25.457 17.21 0 20.632 13.521 20.087 25.499 1.662.6 2.23 3.37 1.269 6.259-.567 1.704-1.536 3.061-2.584 3.787-.867 4.091-1.912 7.086-2.388 7.842-1.02 1.627-3.698 4.183-6.741 6.413v11.24c-5.315 6.424-14.007 6.218-19.317 0z" fill="#f6d1af"/><path d="M29.534 5.846c-5.579 1.79-10.038 2.178-11.37.5 0 0-4.786 9.944 4.17 15.143.623.362 1.252.678 1.884.953.015 5.113.846 10.333 1.517 14.828v-.041c0 .092.037.188.06.289.064.121.137.238.218.349.182.052.376.03.542-.06.042-.027.067-.074.065-.124.056-.821 0-2.45 0-2.469-.111-1.28-.389-2.515-.579-3.763.545-3.451 1.733-5.299 2.917-7.678 6.857.963 13.24-1.995 15.464-4.427 1.05-1.148 2.337-2.551 3.677-3.83l2.194.88c1.946.789 2.238-2.638 4.388-2.804.927-.069 2.817 3.01 3.591 2.923 7.655-.895 4.453 10.595 5.639 15.904-.162.918-.338 1.835-.417 2.79 0 0-.051 1.647 0 2.469-.002.05.023.097.065.124.163.089.353.112.533.064.081-.111.154-.227.218-.349.08-.331.123-.669.13-1.009l.208-1.464c1.543-5.727 4.388-28.495-6.301-30.96C49.152-3.062 35.38.234 29.534 5.846z" fill="#343434"/><path d="M54.661 52.948v1.051s-4.976 5.818-9.679 5.612-9.638-6.006-9.638-6.006l-.004-.687c3.353 2.458 7.158 4.528 9.678 4.528 2.511 0 6.293-2.054 9.643-4.497z" fill="#000" fill-opacity=".2"/></g></symbol></svg>